G04 #@! TF.GenerationSoftware,KiCad,Pcbnew,(5.1.7-0-10_14)*
G04 #@! TF.CreationDate,2020-11-17T17:39:49+01:00*
G04 #@! TF.ProjectId,Pilot_Wire_v1,50696c6f-745f-4576-9972-655f76312e6b,1.0*
G04 #@! TF.SameCoordinates,Original*
G04 #@! TF.FileFunction,Legend,Top*
G04 #@! TF.FilePolarity,Positive*
%FSLAX46Y46*%
G04 Gerber Fmt 4.6, Leading zero omitted, Abs format (unit mm)*
G04 Created by KiCad (PCBNEW (5.1.7-0-10_14)) date 2020-11-17 17:39:49*
%MOMM*%
%LPD*%
G01*
G04 APERTURE LIST*
%ADD10C,0.073660*%
%ADD11C,0.120000*%
%ADD12C,0.152400*%
%ADD13C,0.130000*%
%ADD14C,0.127000*%
%ADD15C,0.150000*%
%ADD16C,0.100000*%
G04 APERTURE END LIST*
D10*
X137589260Y-31630620D02*
X137548620Y-31579820D01*
X137548620Y-31579820D02*
X137487660Y-31480760D01*
X137487660Y-31480760D02*
X137429240Y-31399480D01*
X137429240Y-31399480D02*
X137388600Y-31341060D01*
X137388600Y-31341060D02*
X137358120Y-31310580D01*
X137358120Y-31310580D02*
X137299700Y-31219140D01*
X137299700Y-31219140D02*
X137269220Y-31201360D01*
X137269220Y-31201360D02*
X137248900Y-31170880D01*
X137248900Y-31170880D02*
X137167620Y-31089600D01*
X137167620Y-31089600D02*
X137160000Y-31069280D01*
X137160000Y-31069280D02*
X137139680Y-31059120D01*
X137139680Y-31059120D02*
X137129520Y-31041340D01*
X137129520Y-31041340D02*
X137109200Y-31021020D01*
X137109200Y-31021020D02*
X137088880Y-31010860D01*
X137088880Y-31010860D02*
X137048240Y-30970220D01*
X137048240Y-30970220D02*
X137017760Y-30949900D01*
X137017760Y-30949900D02*
X136999980Y-30929580D01*
X136999980Y-30929580D02*
X136979660Y-30899100D01*
X136979660Y-30899100D02*
X136949180Y-30881320D01*
X136949180Y-30881320D02*
X136908540Y-30840680D01*
X136908540Y-30840680D02*
X136878060Y-30820360D01*
X136878060Y-30820360D02*
X136839960Y-30779720D01*
X136839960Y-30779720D02*
X136789160Y-30739080D01*
X136789160Y-30739080D02*
X136679940Y-30629860D01*
X136679940Y-30629860D02*
X136649460Y-30609540D01*
X136649460Y-30609540D02*
X136598660Y-30561280D01*
X136598660Y-30561280D02*
X136578340Y-30551120D01*
X136578340Y-30551120D02*
X136547860Y-30520640D01*
X136547860Y-30520640D02*
X136537700Y-30500320D01*
X136537700Y-30500320D02*
X136527540Y-30500320D01*
X136527540Y-30500320D02*
X136519920Y-30490160D01*
X136519920Y-30490160D02*
X136519920Y-30480000D01*
X136519920Y-30480000D02*
X136509760Y-30480000D01*
X136509760Y-30480000D02*
X136509760Y-30469840D01*
X136509760Y-30469840D02*
X136519920Y-30469840D01*
X136519920Y-30469840D02*
X136519920Y-30459680D01*
X136519920Y-30459680D02*
X136618980Y-30360620D01*
X136618980Y-30360620D02*
X136649460Y-30340300D01*
X136649460Y-30340300D02*
X136679940Y-30309820D01*
X136679940Y-30309820D02*
X136718040Y-30279340D01*
X136718040Y-30279340D02*
X136748520Y-30251400D01*
X136748520Y-30251400D02*
X136829800Y-30190440D01*
X136829800Y-30190440D02*
X136878060Y-30149800D01*
X136878060Y-30149800D02*
X136959340Y-30091380D01*
X136959340Y-30091380D02*
X136989820Y-30060900D01*
X136989820Y-30060900D02*
X137017760Y-30040580D01*
X137017760Y-30040580D02*
X137038080Y-30020260D01*
X137038080Y-30020260D02*
X137068560Y-29999940D01*
X137068560Y-29999940D02*
X137109200Y-29979620D01*
X137109200Y-29979620D02*
X137119360Y-29969460D01*
X137119360Y-29969460D02*
X137139680Y-29959300D01*
X137139680Y-29959300D02*
X137149840Y-29949140D01*
X137149840Y-29949140D02*
X137160000Y-29949140D01*
X137160000Y-29949140D02*
X137167620Y-29941520D01*
X137167620Y-29941520D02*
X137187940Y-29941520D01*
X137187940Y-29941520D02*
X137198100Y-29931360D01*
X137198100Y-29931360D02*
X137238740Y-29931360D01*
X137238740Y-29931360D02*
X137279380Y-30040580D01*
X137279380Y-30040580D02*
X137317480Y-30119320D01*
X137317480Y-30119320D02*
X137358120Y-30220920D01*
X137358120Y-30220920D02*
X137378440Y-30259020D01*
X137378440Y-30259020D02*
X137398760Y-30309820D01*
X137398760Y-30309820D02*
X137419080Y-30350460D01*
X137419080Y-30350460D02*
X137439400Y-30401260D01*
X137439400Y-30401260D02*
X137459720Y-30439360D01*
X137459720Y-30439360D02*
X137477500Y-30469840D01*
X137477500Y-30469840D02*
X137497820Y-30510480D01*
X137497820Y-30510480D02*
X137518140Y-30571440D01*
X137518140Y-30571440D02*
X137528300Y-30589220D01*
X137528300Y-30589220D02*
X137548620Y-30609540D01*
X137548620Y-30609540D02*
X137548620Y-30619700D01*
X137548620Y-30619700D02*
X137558780Y-30629860D01*
X137558780Y-30629860D02*
X137558780Y-30640020D01*
X137558780Y-30640020D02*
X137568940Y-30640020D01*
X137568940Y-30640020D02*
X137568940Y-30650180D01*
X137568940Y-30650180D02*
X137579100Y-30650180D01*
X137579100Y-30650180D02*
X137589260Y-30660340D01*
X137589260Y-30660340D02*
X137637520Y-30660340D01*
X137637520Y-30660340D02*
X137637520Y-30650180D01*
X137637520Y-30650180D02*
X137657840Y-30629860D01*
X137657840Y-30629860D02*
X137698480Y-30551120D01*
X137698480Y-30551120D02*
X137718800Y-30520640D01*
X137718800Y-30520640D02*
X137728960Y-30490160D01*
X137728960Y-30490160D02*
X137749280Y-30449520D01*
X137749280Y-30449520D02*
X137769600Y-30419040D01*
X137769600Y-30419040D02*
X137789920Y-30380940D01*
X137789920Y-30380940D02*
X137797540Y-30340300D01*
X137797540Y-30340300D02*
X137899140Y-30139640D01*
X137899140Y-30139640D02*
X137939780Y-30040580D01*
X137939780Y-30040580D02*
X137967720Y-29989780D01*
X137967720Y-29989780D02*
X137988040Y-29941520D01*
X137988040Y-29941520D02*
X138018520Y-29880560D01*
X138018520Y-29880560D02*
X138049000Y-29829760D01*
X138049000Y-29829760D02*
X138079480Y-29771340D01*
X138079480Y-29771340D02*
X138099800Y-29720540D01*
X138099800Y-29720540D02*
X138127740Y-29669740D01*
X138127740Y-29669740D02*
X138158220Y-29611320D01*
X138158220Y-29611320D02*
X138178540Y-29560520D01*
X138178540Y-29560520D02*
X138209020Y-29519880D01*
X138209020Y-29519880D02*
X138229340Y-29469080D01*
X138229340Y-29469080D02*
X138259820Y-29430980D01*
X138259820Y-29430980D02*
X138277600Y-29380180D01*
X138277600Y-29380180D02*
X138430000Y-29131260D01*
X138430000Y-29131260D02*
X138457940Y-29090620D01*
X138457940Y-29090620D02*
X138518900Y-28989020D01*
X138518900Y-28989020D02*
X138607800Y-28869640D01*
X138607800Y-28869640D02*
X138628120Y-28829000D01*
X138628120Y-28829000D02*
X138658600Y-28801060D01*
X138658600Y-28801060D02*
X138699240Y-28740100D01*
X138699240Y-28740100D02*
X138729720Y-28709620D01*
X138729720Y-28709620D02*
X138757660Y-28671520D01*
X138757660Y-28671520D02*
X138907520Y-28519120D01*
X138907520Y-28519120D02*
X138948160Y-28491180D01*
X138948160Y-28491180D02*
X138978640Y-28450540D01*
X138978640Y-28450540D02*
X139019280Y-28420060D01*
X139019280Y-28420060D02*
X139077700Y-28359100D01*
X139077700Y-28359100D02*
X139138660Y-28321000D01*
X139138660Y-28321000D02*
X139148820Y-28310840D01*
X139148820Y-28310840D02*
X139169140Y-28310840D01*
X139169140Y-28310840D02*
X139169140Y-28321000D01*
X139169140Y-28321000D02*
X139148820Y-28321000D01*
X139148820Y-28321000D02*
X139148820Y-28331160D01*
X139148820Y-28331160D02*
X139138660Y-28331160D01*
X139138660Y-28331160D02*
X139128500Y-28341320D01*
X139128500Y-28341320D02*
X139118340Y-28341320D01*
X139118340Y-28341320D02*
X139148820Y-28310840D01*
X139148820Y-28310840D02*
X139179300Y-28300680D01*
X139179300Y-28300680D02*
X139199620Y-28310840D01*
X139199620Y-28310840D02*
X139209780Y-28331160D01*
X139209780Y-28331160D02*
X139219940Y-28359100D01*
X139219940Y-28359100D02*
X139219940Y-28470860D01*
X139219940Y-28470860D02*
X139209780Y-28539440D01*
X139209780Y-28539440D02*
X139209780Y-28630880D01*
X139209780Y-28630880D02*
X139199620Y-28709620D01*
X139199620Y-28709620D02*
X139189460Y-28811220D01*
X139189460Y-28811220D02*
X139189460Y-29141420D01*
X139189460Y-29141420D02*
X139209780Y-29380180D01*
X139209780Y-29380180D02*
X139209780Y-29410660D01*
X139209780Y-29410660D02*
X139219940Y-29451300D01*
X139219940Y-29451300D02*
X139219940Y-29519880D01*
X139219940Y-29519880D02*
X139209780Y-29540200D01*
X139209780Y-29540200D02*
X139209780Y-29570680D01*
X139209780Y-29570680D02*
X139199620Y-29591000D01*
X139199620Y-29591000D02*
X139179300Y-29611320D01*
X139179300Y-29611320D02*
X139179300Y-29621480D01*
X139179300Y-29621480D02*
X139158980Y-29629100D01*
X139158980Y-29629100D02*
X139138660Y-29649420D01*
X139138660Y-29649420D02*
X139118340Y-29659580D01*
X139118340Y-29659580D02*
X139077700Y-29700220D01*
X139077700Y-29700220D02*
X139029440Y-29740860D01*
X139029440Y-29740860D02*
X138948160Y-29819600D01*
X138948160Y-29819600D02*
X138907520Y-29850080D01*
X138907520Y-29850080D02*
X138838940Y-29921200D01*
X138838940Y-29921200D02*
X138808460Y-29959300D01*
X138808460Y-29959300D02*
X138767820Y-29989780D01*
X138767820Y-29989780D02*
X138739880Y-30030420D01*
X138739880Y-30030420D02*
X138709400Y-30060900D01*
X138709400Y-30060900D02*
X138648440Y-30139640D01*
X138648440Y-30139640D02*
X138607800Y-30180280D01*
X138607800Y-30180280D02*
X138579860Y-30231080D01*
X138579860Y-30231080D02*
X138539220Y-30279340D01*
X138539220Y-30279340D02*
X138478260Y-30360620D01*
X138478260Y-30360620D02*
X138419840Y-30449520D01*
X138419840Y-30449520D02*
X138297920Y-30609540D01*
X138297920Y-30609540D02*
X138249660Y-30690820D01*
X138249660Y-30690820D02*
X138198860Y-30759400D01*
X138198860Y-30759400D02*
X138148060Y-30840680D01*
X138148060Y-30840680D02*
X138049000Y-30980380D01*
X138049000Y-30980380D02*
X138008360Y-31059120D01*
X138008360Y-31059120D02*
X137929620Y-31201360D01*
X137929620Y-31201360D02*
X137888980Y-31280100D01*
X137888980Y-31280100D02*
X137848340Y-31351220D01*
X137848340Y-31351220D02*
X137769600Y-31511240D01*
X137769600Y-31511240D02*
X137759440Y-31521400D01*
X137759440Y-31521400D02*
X137759440Y-31539180D01*
X137759440Y-31539180D02*
X137749280Y-31549340D01*
X137749280Y-31549340D02*
X137739120Y-31569660D01*
X137739120Y-31569660D02*
X137728960Y-31579820D01*
X137728960Y-31579820D02*
X137728960Y-31600140D01*
X137728960Y-31600140D02*
X137708640Y-31620460D01*
X137708640Y-31620460D02*
X137708640Y-31630620D01*
X137708640Y-31630620D02*
X137698480Y-31640780D01*
X137698480Y-31640780D02*
X137698480Y-31650940D01*
X137698480Y-31650940D02*
X137688320Y-31661100D01*
X137688320Y-31661100D02*
X137688320Y-31671260D01*
X137688320Y-31671260D02*
X137678160Y-31681420D01*
X137678160Y-31681420D02*
X137678160Y-31689040D01*
X137678160Y-31689040D02*
X137668000Y-31689040D01*
X137668000Y-31689040D02*
X137668000Y-31699200D01*
X137668000Y-31699200D02*
X137637520Y-31699200D01*
X137637520Y-31699200D02*
X137599420Y-31661100D01*
X137599420Y-31661100D02*
X137599420Y-31650940D01*
X137599420Y-31650940D02*
X137589260Y-31630620D01*
X136377680Y-31671260D02*
X136329420Y-31671260D01*
X136329420Y-31671260D02*
X136098280Y-31661100D01*
X136098280Y-31661100D02*
X136098280Y-32890460D01*
X136098280Y-32890460D02*
X136268460Y-32890460D01*
X136268460Y-32890460D02*
X136268460Y-32369760D01*
X136268460Y-32369760D02*
X136458960Y-32369760D01*
X136458960Y-32369760D02*
X136479280Y-32379920D01*
X136479280Y-32379920D02*
X136499600Y-32379920D01*
X136499600Y-32379920D02*
X136519920Y-32390080D01*
X136519920Y-32390080D02*
X136527540Y-32390080D01*
X136527540Y-32390080D02*
X136547860Y-32400240D01*
X136547860Y-32400240D02*
X136618980Y-32471360D01*
X136618980Y-32471360D02*
X136618980Y-32481520D01*
X136618980Y-32481520D02*
X136639300Y-32499300D01*
X136639300Y-32499300D02*
X136639300Y-32509460D01*
X136639300Y-32509460D02*
X136649460Y-32529780D01*
X136649460Y-32529780D02*
X136659620Y-32539940D01*
X136659620Y-32539940D02*
X136659620Y-32560260D01*
X136659620Y-32560260D02*
X136669780Y-32570420D01*
X136669780Y-32570420D02*
X136707880Y-32649160D01*
X136707880Y-32649160D02*
X136718040Y-32659320D01*
X136718040Y-32659320D02*
X136738360Y-32699960D01*
X136738360Y-32699960D02*
X136829800Y-32890460D01*
X136829800Y-32890460D02*
X136999980Y-32890460D01*
X136999980Y-32890460D02*
X136908540Y-32730440D01*
X136908540Y-32730440D02*
X136878060Y-32669480D01*
X136878060Y-32669480D02*
X136839960Y-32570420D01*
X136839960Y-32570420D02*
X136819640Y-32529780D01*
X136819640Y-32529780D02*
X136758680Y-32440880D01*
X136758680Y-32440880D02*
X136738360Y-32400240D01*
X136738360Y-32400240D02*
X136718040Y-32390080D01*
X136718040Y-32390080D02*
X136707880Y-32369760D01*
X136707880Y-32369760D02*
X136687560Y-32349440D01*
X136687560Y-32349440D02*
X136679940Y-32349440D01*
X136679940Y-32349440D02*
X136659620Y-32339280D01*
X136659620Y-32339280D02*
X136649460Y-32329120D01*
X136649460Y-32329120D02*
X136608820Y-32311340D01*
X136608820Y-32311340D02*
X136649460Y-32301180D01*
X136649460Y-32301180D02*
X136669780Y-32291020D01*
X136669780Y-32291020D02*
X136697720Y-32280860D01*
X136697720Y-32280860D02*
X136738360Y-32260540D01*
X136738360Y-32260540D02*
X136758680Y-32240220D01*
X136758680Y-32240220D02*
X136779000Y-32230060D01*
X136779000Y-32230060D02*
X136799320Y-32209740D01*
X136799320Y-32209740D02*
X136809480Y-32189420D01*
X136809480Y-32189420D02*
X136829800Y-32169100D01*
X136829800Y-32169100D02*
X136839960Y-32141160D01*
X136839960Y-32141160D02*
X136839960Y-32120840D01*
X136839960Y-32120840D02*
X136847580Y-32090360D01*
X136847580Y-32090360D02*
X136847580Y-32070040D01*
X136847580Y-32070040D02*
X136857740Y-32039560D01*
X136857740Y-32039560D02*
X136857740Y-31981140D01*
X136857740Y-31981140D02*
X136679940Y-31981140D01*
X136679940Y-31981140D02*
X136679940Y-32009080D01*
X136679940Y-32009080D02*
X136687560Y-32019240D01*
X136687560Y-32019240D02*
X136687560Y-32059880D01*
X136687560Y-32059880D02*
X136679940Y-32070040D01*
X136679940Y-32070040D02*
X136679940Y-32120840D01*
X136679940Y-32120840D02*
X136669780Y-32131000D01*
X136669780Y-32131000D02*
X136669780Y-32141160D01*
X136669780Y-32141160D02*
X136649460Y-32161480D01*
X136649460Y-32161480D02*
X136649460Y-32169100D01*
X136649460Y-32169100D02*
X136639300Y-32179260D01*
X136639300Y-32179260D02*
X136629140Y-32179260D01*
X136629140Y-32179260D02*
X136618980Y-32189420D01*
X136618980Y-32189420D02*
X136618980Y-32199580D01*
X136618980Y-32199580D02*
X136608820Y-32199580D01*
X136608820Y-32199580D02*
X136598660Y-32209740D01*
X136598660Y-32209740D02*
X136588500Y-32209740D01*
X136588500Y-32209740D02*
X136578340Y-32219900D01*
X136578340Y-32219900D02*
X136558020Y-32219900D01*
X136558020Y-32219900D02*
X136547860Y-32230060D01*
X136547860Y-32230060D02*
X136509760Y-32230060D01*
X136509760Y-32230060D02*
X136499600Y-32240220D01*
X136499600Y-32240220D02*
X136268460Y-32240220D01*
X136268460Y-32240220D02*
X136268460Y-31800800D01*
X136268460Y-31800800D02*
X136377680Y-31800800D01*
X136377680Y-31800800D02*
X136377680Y-31671260D01*
X136377680Y-31671260D02*
X136377680Y-31800800D01*
X136377680Y-31800800D02*
X136519920Y-31800800D01*
X136519920Y-31800800D02*
X136527540Y-31810960D01*
X136527540Y-31810960D02*
X136547860Y-31810960D01*
X136547860Y-31810960D02*
X136558020Y-31821120D01*
X136558020Y-31821120D02*
X136578340Y-31821120D01*
X136578340Y-31821120D02*
X136598660Y-31841440D01*
X136598660Y-31841440D02*
X136608820Y-31841440D01*
X136608820Y-31841440D02*
X136649460Y-31879540D01*
X136649460Y-31879540D02*
X136649460Y-31889700D01*
X136649460Y-31889700D02*
X136659620Y-31899860D01*
X136659620Y-31899860D02*
X136669780Y-31899860D01*
X136669780Y-31899860D02*
X136669780Y-31940500D01*
X136669780Y-31940500D02*
X136679940Y-31950660D01*
X136679940Y-31950660D02*
X136679940Y-31981140D01*
X136679940Y-31981140D02*
X136857740Y-31981140D01*
X136857740Y-31981140D02*
X136857740Y-31960820D01*
X136857740Y-31960820D02*
X136847580Y-31940500D01*
X136847580Y-31940500D02*
X136847580Y-31920180D01*
X136847580Y-31920180D02*
X136839960Y-31899860D01*
X136839960Y-31899860D02*
X136839960Y-31879540D01*
X136839960Y-31879540D02*
X136829800Y-31859220D01*
X136829800Y-31859220D02*
X136819640Y-31849060D01*
X136819640Y-31849060D02*
X136799320Y-31810960D01*
X136799320Y-31810960D02*
X136789160Y-31800800D01*
X136789160Y-31800800D02*
X136779000Y-31780480D01*
X136779000Y-31780480D02*
X136758680Y-31770320D01*
X136758680Y-31770320D02*
X136718040Y-31729680D01*
X136718040Y-31729680D02*
X136697720Y-31719520D01*
X136697720Y-31719520D02*
X136687560Y-31709360D01*
X136687560Y-31709360D02*
X136669780Y-31709360D01*
X136669780Y-31709360D02*
X136659620Y-31699200D01*
X136659620Y-31699200D02*
X136649460Y-31699200D01*
X136649460Y-31699200D02*
X136629140Y-31689040D01*
X136629140Y-31689040D02*
X136598660Y-31689040D01*
X136598660Y-31689040D02*
X136588500Y-31681420D01*
X136588500Y-31681420D02*
X136519920Y-31681420D01*
X136519920Y-31681420D02*
X136489440Y-31671260D01*
X136489440Y-31671260D02*
X136377680Y-31671260D01*
X137129520Y-32311340D02*
X137129520Y-32349440D01*
X137129520Y-32349440D02*
X137119360Y-32359600D01*
X137119360Y-32359600D02*
X137119360Y-32499300D01*
X137119360Y-32499300D02*
X137129520Y-32529780D01*
X137129520Y-32529780D02*
X137129520Y-32580580D01*
X137129520Y-32580580D02*
X137139680Y-32611060D01*
X137139680Y-32611060D02*
X137139680Y-32631380D01*
X137139680Y-32631380D02*
X137149840Y-32649160D01*
X137149840Y-32649160D02*
X137149840Y-32669480D01*
X137149840Y-32669480D02*
X137167620Y-32710120D01*
X137167620Y-32710120D02*
X137177780Y-32720280D01*
X137177780Y-32720280D02*
X137198100Y-32760920D01*
X137198100Y-32760920D02*
X137208260Y-32771080D01*
X137208260Y-32771080D02*
X137218420Y-32791400D01*
X137218420Y-32791400D02*
X137269220Y-32839660D01*
X137269220Y-32839660D02*
X137279380Y-32839660D01*
X137279380Y-32839660D02*
X137279380Y-32849820D01*
X137279380Y-32849820D02*
X137289540Y-32849820D01*
X137289540Y-32849820D02*
X137299700Y-32859980D01*
X137299700Y-32859980D02*
X137309860Y-32859980D01*
X137309860Y-32859980D02*
X137317480Y-32870140D01*
X137317480Y-32870140D02*
X137327640Y-32870140D01*
X137327640Y-32870140D02*
X137327640Y-32880300D01*
X137327640Y-32880300D02*
X137337800Y-32880300D01*
X137337800Y-32880300D02*
X137347960Y-32890460D01*
X137347960Y-32890460D02*
X137378440Y-32890460D01*
X137378440Y-32890460D02*
X137388600Y-32900620D01*
X137388600Y-32900620D02*
X137419080Y-32900620D01*
X137419080Y-32900620D02*
X137439400Y-32910780D01*
X137439400Y-32910780D02*
X137568940Y-32910780D01*
X137568940Y-32910780D02*
X137589260Y-32900620D01*
X137589260Y-32900620D02*
X137619740Y-32900620D01*
X137619740Y-32900620D02*
X137637520Y-32890460D01*
X137637520Y-32890460D02*
X137668000Y-32890460D01*
X137668000Y-32890460D02*
X137698480Y-32870140D01*
X137698480Y-32870140D02*
X137739120Y-32849820D01*
X137739120Y-32849820D02*
X137759440Y-32829500D01*
X137759440Y-32829500D02*
X137779760Y-32819340D01*
X137779760Y-32819340D02*
X137797540Y-32799020D01*
X137797540Y-32799020D02*
X137807700Y-32781240D01*
X137807700Y-32781240D02*
X137828020Y-32760920D01*
X137828020Y-32760920D02*
X137838180Y-32730440D01*
X137838180Y-32730440D02*
X137848340Y-32710120D01*
X137848340Y-32710120D02*
X137899140Y-32560260D01*
X137899140Y-32560260D02*
X137899140Y-32471360D01*
X137899140Y-32471360D02*
X137909300Y-32451040D01*
X137909300Y-32451040D02*
X137909300Y-32420560D01*
X137909300Y-32420560D02*
X137899140Y-32400240D01*
X137899140Y-32400240D02*
X137899140Y-32321500D01*
X137899140Y-32321500D02*
X137888980Y-32291020D01*
X137888980Y-32291020D02*
X137888980Y-32270700D01*
X137888980Y-32270700D02*
X137878820Y-32250380D01*
X137878820Y-32250380D02*
X137878820Y-32219900D01*
X137878820Y-32219900D02*
X137858500Y-32179260D01*
X137858500Y-32179260D02*
X137858500Y-32161480D01*
X137858500Y-32161480D02*
X137848340Y-32141160D01*
X137848340Y-32141160D02*
X137828020Y-32120840D01*
X137828020Y-32120840D02*
X137828020Y-32110680D01*
X137828020Y-32110680D02*
X137807700Y-32090360D01*
X137807700Y-32090360D02*
X137807700Y-32080200D01*
X137807700Y-32080200D02*
X137759440Y-32029400D01*
X137759440Y-32029400D02*
X137749280Y-32029400D01*
X137749280Y-32029400D02*
X137728960Y-32009080D01*
X137728960Y-32009080D02*
X137718800Y-32009080D01*
X137718800Y-32009080D02*
X137718800Y-32001460D01*
X137718800Y-32001460D02*
X137708640Y-31991300D01*
X137708640Y-31991300D02*
X137688320Y-31991300D01*
X137688320Y-31991300D02*
X137678160Y-31981140D01*
X137678160Y-31981140D02*
X137657840Y-31981140D01*
X137657840Y-31981140D02*
X137647680Y-31970980D01*
X137647680Y-31970980D02*
X137619740Y-31970980D01*
X137619740Y-31970980D02*
X137609580Y-31960820D01*
X137609580Y-31960820D02*
X137548620Y-31960820D01*
X137548620Y-31960820D02*
X137548620Y-32080200D01*
X137548620Y-32080200D02*
X137568940Y-32080200D01*
X137568940Y-32080200D02*
X137579100Y-32090360D01*
X137579100Y-32090360D02*
X137599420Y-32090360D01*
X137599420Y-32090360D02*
X137609580Y-32100520D01*
X137609580Y-32100520D02*
X137629900Y-32110680D01*
X137629900Y-32110680D02*
X137637520Y-32110680D01*
X137637520Y-32110680D02*
X137668000Y-32141160D01*
X137668000Y-32141160D02*
X137678160Y-32161480D01*
X137678160Y-32161480D02*
X137688320Y-32169100D01*
X137688320Y-32169100D02*
X137698480Y-32189420D01*
X137698480Y-32189420D02*
X137708640Y-32199580D01*
X137708640Y-32199580D02*
X137728960Y-32240220D01*
X137728960Y-32240220D02*
X137728960Y-32260540D01*
X137728960Y-32260540D02*
X137739120Y-32270700D01*
X137739120Y-32270700D02*
X137739120Y-32311340D01*
X137739120Y-32311340D02*
X137749280Y-32329120D01*
X137749280Y-32329120D02*
X137749280Y-32509460D01*
X137749280Y-32509460D02*
X137739120Y-32539940D01*
X137739120Y-32539940D02*
X137739120Y-32580580D01*
X137739120Y-32580580D02*
X137728960Y-32600900D01*
X137728960Y-32600900D02*
X137728960Y-32621220D01*
X137728960Y-32621220D02*
X137718800Y-32631380D01*
X137718800Y-32631380D02*
X137718800Y-32649160D01*
X137718800Y-32649160D02*
X137708640Y-32659320D01*
X137708640Y-32659320D02*
X137708640Y-32669480D01*
X137708640Y-32669480D02*
X137698480Y-32679640D01*
X137698480Y-32679640D02*
X137698480Y-32689800D01*
X137698480Y-32689800D02*
X137678160Y-32710120D01*
X137678160Y-32710120D02*
X137678160Y-32720280D01*
X137678160Y-32720280D02*
X137657840Y-32740600D01*
X137657840Y-32740600D02*
X137647680Y-32740600D01*
X137647680Y-32740600D02*
X137637520Y-32750760D01*
X137637520Y-32750760D02*
X137637520Y-32760920D01*
X137637520Y-32760920D02*
X137629900Y-32760920D01*
X137629900Y-32760920D02*
X137619740Y-32771080D01*
X137619740Y-32771080D02*
X137599420Y-32771080D01*
X137599420Y-32771080D02*
X137589260Y-32781240D01*
X137589260Y-32781240D02*
X137558780Y-32781240D01*
X137558780Y-32781240D02*
X137548620Y-32791400D01*
X137548620Y-32791400D02*
X137459720Y-32791400D01*
X137459720Y-32791400D02*
X137449560Y-32781240D01*
X137449560Y-32781240D02*
X137439400Y-32781240D01*
X137439400Y-32781240D02*
X137429240Y-32771080D01*
X137429240Y-32771080D02*
X137419080Y-32771080D01*
X137419080Y-32771080D02*
X137398760Y-32760920D01*
X137398760Y-32760920D02*
X137388600Y-32760920D01*
X137388600Y-32760920D02*
X137388600Y-32750760D01*
X137388600Y-32750760D02*
X137378440Y-32740600D01*
X137378440Y-32740600D02*
X137368280Y-32740600D01*
X137368280Y-32740600D02*
X137337800Y-32710120D01*
X137337800Y-32710120D02*
X137337800Y-32699960D01*
X137337800Y-32699960D02*
X137317480Y-32679640D01*
X137317480Y-32679640D02*
X137317480Y-32669480D01*
X137317480Y-32669480D02*
X137309860Y-32659320D01*
X137309860Y-32659320D02*
X137299700Y-32639000D01*
X137299700Y-32639000D02*
X137299700Y-32621220D01*
X137299700Y-32621220D02*
X137289540Y-32600900D01*
X137289540Y-32600900D02*
X137289540Y-32580580D01*
X137289540Y-32580580D02*
X137279380Y-32560260D01*
X137279380Y-32560260D02*
X137279380Y-32329120D01*
X137279380Y-32329120D02*
X137289540Y-32311340D01*
X137289540Y-32311340D02*
X137129520Y-32311340D01*
X137129520Y-32311340D02*
X137289540Y-32311340D01*
X137289540Y-32311340D02*
X137289540Y-32260540D01*
X137289540Y-32260540D02*
X137299700Y-32250380D01*
X137299700Y-32250380D02*
X137299700Y-32230060D01*
X137299700Y-32230060D02*
X137309860Y-32219900D01*
X137309860Y-32219900D02*
X137309860Y-32199580D01*
X137309860Y-32199580D02*
X137317480Y-32189420D01*
X137317480Y-32189420D02*
X137317480Y-32179260D01*
X137317480Y-32179260D02*
X137327640Y-32169100D01*
X137327640Y-32169100D02*
X137337800Y-32151320D01*
X137337800Y-32151320D02*
X137378440Y-32110680D01*
X137378440Y-32110680D02*
X137388600Y-32110680D01*
X137388600Y-32110680D02*
X137408920Y-32090360D01*
X137408920Y-32090360D02*
X137439400Y-32090360D01*
X137439400Y-32090360D02*
X137449560Y-32080200D01*
X137449560Y-32080200D02*
X137548620Y-32080200D01*
X137548620Y-32080200D02*
X137548620Y-31960820D01*
X137548620Y-31960820D02*
X137439400Y-31960820D01*
X137439400Y-31960820D02*
X137419080Y-31970980D01*
X137419080Y-31970980D02*
X137378440Y-31970980D01*
X137378440Y-31970980D02*
X137368280Y-31981140D01*
X137368280Y-31981140D02*
X137347960Y-31981140D01*
X137347960Y-31981140D02*
X137327640Y-31991300D01*
X137327640Y-31991300D02*
X137317480Y-32001460D01*
X137317480Y-32001460D02*
X137299700Y-32009080D01*
X137299700Y-32009080D02*
X137289540Y-32009080D01*
X137289540Y-32009080D02*
X137248900Y-32049720D01*
X137248900Y-32049720D02*
X137228580Y-32059880D01*
X137228580Y-32059880D02*
X137218420Y-32080200D01*
X137218420Y-32080200D02*
X137208260Y-32090360D01*
X137208260Y-32090360D02*
X137198100Y-32110680D01*
X137198100Y-32110680D02*
X137187940Y-32120840D01*
X137187940Y-32120840D02*
X137160000Y-32179260D01*
X137160000Y-32179260D02*
X137160000Y-32199580D01*
X137160000Y-32199580D02*
X137139680Y-32240220D01*
X137139680Y-32240220D02*
X137139680Y-32260540D01*
X137139680Y-32260540D02*
X137129520Y-32291020D01*
X137129520Y-32291020D02*
X137129520Y-32311340D01*
X138137900Y-32890460D02*
X138137900Y-31671260D01*
X138137900Y-31671260D02*
X138297920Y-31671260D01*
X138297920Y-31671260D02*
X138297920Y-32169100D01*
X138297920Y-32169100D02*
X138767820Y-32169100D01*
X138767820Y-32169100D02*
X138767820Y-31671260D01*
X138767820Y-31671260D02*
X138927840Y-31671260D01*
X138927840Y-31671260D02*
X138927840Y-32890460D01*
X138927840Y-32890460D02*
X138767820Y-32890460D01*
X138767820Y-32890460D02*
X138767820Y-32301180D01*
X138767820Y-32301180D02*
X138297920Y-32301180D01*
X138297920Y-32301180D02*
X138297920Y-32890460D01*
X138297920Y-32890460D02*
X138137900Y-32890460D01*
X139418060Y-32900620D02*
X139359640Y-32900620D01*
X139359640Y-32900620D02*
X139359640Y-32890460D01*
X139359640Y-32890460D02*
X139319000Y-32890460D01*
X139319000Y-32890460D02*
X139308840Y-32880300D01*
X139308840Y-32880300D02*
X139288520Y-32880300D01*
X139288520Y-32880300D02*
X139278360Y-32870140D01*
X139278360Y-32870140D02*
X139247880Y-32870140D01*
X139247880Y-32870140D02*
X139247880Y-32859980D01*
X139247880Y-32859980D02*
X139179300Y-32839660D01*
X139179300Y-32839660D02*
X139179300Y-32669480D01*
X139179300Y-32669480D02*
X139268200Y-32720280D01*
X139268200Y-32720280D02*
X139308840Y-32740600D01*
X139308840Y-32740600D02*
X139468860Y-32781240D01*
X139468860Y-32781240D02*
X139509500Y-32781240D01*
X139509500Y-32781240D02*
X139539980Y-32791400D01*
X139539980Y-32791400D02*
X139578080Y-32781240D01*
X139578080Y-32781240D02*
X139608560Y-32781240D01*
X139608560Y-32781240D02*
X139700000Y-32750760D01*
X139700000Y-32750760D02*
X139778740Y-32669480D01*
X139778740Y-32669480D02*
X139778740Y-32649160D01*
X139778740Y-32649160D02*
X139788900Y-32639000D01*
X139788900Y-32639000D02*
X139788900Y-32611060D01*
X139788900Y-32611060D02*
X139799060Y-32590740D01*
X139799060Y-32590740D02*
X139799060Y-32529780D01*
X139799060Y-32529780D02*
X139788900Y-32509460D01*
X139788900Y-32509460D02*
X139788900Y-32499300D01*
X139788900Y-32499300D02*
X139778740Y-32481520D01*
X139778740Y-32481520D02*
X139778740Y-32471360D01*
X139778740Y-32471360D02*
X139758420Y-32451040D01*
X139758420Y-32451040D02*
X139758420Y-32430720D01*
X139758420Y-32430720D02*
X139748260Y-32430720D01*
X139748260Y-32430720D02*
X139727940Y-32410400D01*
X139727940Y-32410400D02*
X139717780Y-32410400D01*
X139717780Y-32410400D02*
X139700000Y-32390080D01*
X139700000Y-32390080D02*
X139689840Y-32390080D01*
X139689840Y-32390080D02*
X139679680Y-32379920D01*
X139679680Y-32379920D02*
X139669520Y-32379920D01*
X139669520Y-32379920D02*
X139649200Y-32369760D01*
X139649200Y-32369760D02*
X139639040Y-32369760D01*
X139639040Y-32369760D02*
X139598400Y-32349440D01*
X139598400Y-32349440D02*
X139578080Y-32349440D01*
X139578080Y-32349440D02*
X139547600Y-32339280D01*
X139547600Y-32339280D02*
X139529820Y-32339280D01*
X139529820Y-32339280D02*
X139499340Y-32329120D01*
X139499340Y-32329120D02*
X139479020Y-32321500D01*
X139479020Y-32321500D02*
X139458700Y-32321500D01*
X139458700Y-32321500D02*
X139438380Y-32311340D01*
X139438380Y-32311340D02*
X139407900Y-32301180D01*
X139407900Y-32301180D02*
X139387580Y-32301180D01*
X139387580Y-32301180D02*
X139379960Y-32291020D01*
X139379960Y-32291020D02*
X139359640Y-32280860D01*
X139359640Y-32280860D02*
X139339320Y-32280860D01*
X139339320Y-32280860D02*
X139329160Y-32270700D01*
X139329160Y-32270700D02*
X139308840Y-32260540D01*
X139308840Y-32260540D02*
X139298680Y-32250380D01*
X139298680Y-32250380D02*
X139288520Y-32250380D01*
X139288520Y-32250380D02*
X139278360Y-32240220D01*
X139278360Y-32240220D02*
X139258040Y-32230060D01*
X139258040Y-32230060D02*
X139258040Y-32219900D01*
X139258040Y-32219900D02*
X139227560Y-32199580D01*
X139227560Y-32199580D02*
X139209780Y-32179260D01*
X139209780Y-32179260D02*
X139169140Y-32059880D01*
X139169140Y-32059880D02*
X139169140Y-32029400D01*
X139169140Y-32029400D02*
X139158980Y-31991300D01*
X139158980Y-31991300D02*
X139169140Y-31960820D01*
X139169140Y-31960820D02*
X139169140Y-31930340D01*
X139169140Y-31930340D02*
X139179300Y-31899860D01*
X139179300Y-31899860D02*
X139189460Y-31859220D01*
X139189460Y-31859220D02*
X139209780Y-31831280D01*
X139209780Y-31831280D02*
X139219940Y-31810960D01*
X139219940Y-31810960D02*
X139237720Y-31780480D01*
X139237720Y-31780480D02*
X139278360Y-31739840D01*
X139278360Y-31739840D02*
X139298680Y-31729680D01*
X139298680Y-31729680D02*
X139329160Y-31699200D01*
X139329160Y-31699200D02*
X139349480Y-31689040D01*
X139349480Y-31689040D02*
X139359640Y-31689040D01*
X139359640Y-31689040D02*
X139397740Y-31671260D01*
X139397740Y-31671260D02*
X139407900Y-31671260D01*
X139407900Y-31671260D02*
X139428220Y-31661100D01*
X139428220Y-31661100D02*
X139448540Y-31661100D01*
X139448540Y-31661100D02*
X139468860Y-31650940D01*
X139468860Y-31650940D02*
X139669520Y-31650940D01*
X139669520Y-31650940D02*
X139679680Y-31661100D01*
X139679680Y-31661100D02*
X139727940Y-31661100D01*
X139727940Y-31661100D02*
X139748260Y-31671260D01*
X139748260Y-31671260D02*
X139758420Y-31671260D01*
X139758420Y-31671260D02*
X139778740Y-31681420D01*
X139778740Y-31681420D02*
X139799060Y-31681420D01*
X139799060Y-31681420D02*
X139809220Y-31689040D01*
X139809220Y-31689040D02*
X139829540Y-31689040D01*
X139829540Y-31689040D02*
X139877800Y-31709360D01*
X139877800Y-31709360D02*
X139877800Y-31859220D01*
X139877800Y-31859220D02*
X139857480Y-31859220D01*
X139857480Y-31859220D02*
X139857480Y-31849060D01*
X139857480Y-31849060D02*
X139839700Y-31849060D01*
X139839700Y-31849060D02*
X139839700Y-31841440D01*
X139839700Y-31841440D02*
X139819380Y-31841440D01*
X139819380Y-31841440D02*
X139809220Y-31831280D01*
X139809220Y-31831280D02*
X139768580Y-31810960D01*
X139768580Y-31810960D02*
X139649200Y-31780480D01*
X139649200Y-31780480D02*
X139618720Y-31780480D01*
X139618720Y-31780480D02*
X139578080Y-31770320D01*
X139578080Y-31770320D02*
X139539980Y-31780480D01*
X139539980Y-31780480D02*
X139509500Y-31780480D01*
X139509500Y-31780480D02*
X139468860Y-31790640D01*
X139468860Y-31790640D02*
X139438380Y-31800800D01*
X139438380Y-31800800D02*
X139418060Y-31810960D01*
X139418060Y-31810960D02*
X139387580Y-31831280D01*
X139387580Y-31831280D02*
X139369800Y-31841440D01*
X139369800Y-31841440D02*
X139349480Y-31869380D01*
X139349480Y-31869380D02*
X139339320Y-31889700D01*
X139339320Y-31889700D02*
X139329160Y-31920180D01*
X139329160Y-31920180D02*
X139329160Y-31930340D01*
X139329160Y-31930340D02*
X139319000Y-31940500D01*
X139319000Y-31940500D02*
X139319000Y-32029400D01*
X139319000Y-32029400D02*
X139329160Y-32039560D01*
X139329160Y-32039560D02*
X139329160Y-32059880D01*
X139329160Y-32059880D02*
X139339320Y-32070040D01*
X139339320Y-32070040D02*
X139339320Y-32080200D01*
X139339320Y-32080200D02*
X139379960Y-32120840D01*
X139379960Y-32120840D02*
X139397740Y-32131000D01*
X139397740Y-32131000D02*
X139407900Y-32131000D01*
X139407900Y-32131000D02*
X139418060Y-32141160D01*
X139418060Y-32141160D02*
X139438380Y-32151320D01*
X139438380Y-32151320D02*
X139448540Y-32151320D01*
X139448540Y-32151320D02*
X139489180Y-32169100D01*
X139489180Y-32169100D02*
X139509500Y-32169100D01*
X139509500Y-32169100D02*
X139529820Y-32179260D01*
X139529820Y-32179260D02*
X139547600Y-32179260D01*
X139547600Y-32179260D02*
X139567920Y-32189420D01*
X139567920Y-32189420D02*
X139649200Y-32209740D01*
X139649200Y-32209740D02*
X139738100Y-32240220D01*
X139738100Y-32240220D02*
X139778740Y-32260540D01*
X139778740Y-32260540D02*
X139809220Y-32270700D01*
X139809220Y-32270700D02*
X139839700Y-32301180D01*
X139839700Y-32301180D02*
X139857480Y-32311340D01*
X139857480Y-32311340D02*
X139867640Y-32329120D01*
X139867640Y-32329120D02*
X139887960Y-32339280D01*
X139887960Y-32339280D02*
X139918440Y-32400240D01*
X139918440Y-32400240D02*
X139928600Y-32410400D01*
X139928600Y-32410400D02*
X139928600Y-32430720D01*
X139928600Y-32430720D02*
X139938760Y-32440880D01*
X139938760Y-32440880D02*
X139938760Y-32679640D01*
X139938760Y-32679640D02*
X139928600Y-32689800D01*
X139928600Y-32689800D02*
X139928600Y-32699960D01*
X139928600Y-32699960D02*
X139918440Y-32710120D01*
X139918440Y-32710120D02*
X139918440Y-32720280D01*
X139918440Y-32720280D02*
X139908280Y-32740600D01*
X139908280Y-32740600D02*
X139898120Y-32750760D01*
X139898120Y-32750760D02*
X139887960Y-32771080D01*
X139887960Y-32771080D02*
X139839700Y-32819340D01*
X139839700Y-32819340D02*
X139819380Y-32829500D01*
X139819380Y-32829500D02*
X139809220Y-32849820D01*
X139809220Y-32849820D02*
X139788900Y-32859980D01*
X139788900Y-32859980D02*
X139768580Y-32859980D01*
X139768580Y-32859980D02*
X139758420Y-32870140D01*
X139758420Y-32870140D02*
X139717780Y-32890460D01*
X139717780Y-32890460D02*
X139700000Y-32890460D01*
X139700000Y-32890460D02*
X139679680Y-32900620D01*
X139679680Y-32900620D02*
X139628880Y-32900620D01*
X139628880Y-32900620D02*
X139608560Y-32910780D01*
X139608560Y-32910780D02*
X139438380Y-32910780D01*
X139438380Y-32910780D02*
X139418060Y-32900620D01*
D11*
X135210000Y-68170000D02*
X135210000Y-66450000D01*
X135210000Y-66450000D02*
X131490000Y-66450000D01*
X131490000Y-66450000D02*
X131490000Y-68170000D01*
X131490000Y-68170000D02*
X135210000Y-68170000D01*
X136280000Y-67310000D02*
X135210000Y-67310000D01*
X130420000Y-67310000D02*
X131490000Y-67310000D01*
X129480000Y-55610000D02*
X129480000Y-56860000D01*
X129480000Y-56860000D02*
X137220000Y-56860000D01*
X137220000Y-56860000D02*
X137220000Y-52360000D01*
X137220000Y-52360000D02*
X129480000Y-52360000D01*
X129480000Y-52360000D02*
X129480000Y-53610000D01*
X129480000Y-53610000D02*
G75*
G02*
X129480000Y-55610000I0J-1000000D01*
G01*
X118050000Y-55610000D02*
X118050000Y-56860000D01*
X118050000Y-56860000D02*
X125790000Y-56860000D01*
X125790000Y-56860000D02*
X125790000Y-52360000D01*
X125790000Y-52360000D02*
X118050000Y-52360000D01*
X118050000Y-52360000D02*
X118050000Y-53610000D01*
X118050000Y-53610000D02*
G75*
G02*
X118050000Y-55610000I0J-1000000D01*
G01*
D12*
X165880000Y-49150000D02*
X165880000Y-65150000D01*
X158280000Y-49150000D02*
X165880000Y-49150000D01*
X141880000Y-51450000D02*
X141880000Y-49150000D01*
X165880000Y-65150000D02*
X158280000Y-65150000D01*
D13*
X141880000Y-65150000D02*
X142780000Y-65150000D01*
X141880000Y-49150000D02*
X142780000Y-49150000D01*
X141880000Y-65150000D02*
X141880000Y-62850000D01*
D11*
X135210000Y-64360000D02*
X135210000Y-62640000D01*
X135210000Y-62640000D02*
X131490000Y-62640000D01*
X131490000Y-62640000D02*
X131490000Y-64360000D01*
X131490000Y-64360000D02*
X135210000Y-64360000D01*
X136280000Y-63500000D02*
X135210000Y-63500000D01*
X130420000Y-63500000D02*
X131490000Y-63500000D01*
X135210000Y-71980000D02*
X135210000Y-70260000D01*
X135210000Y-70260000D02*
X131490000Y-70260000D01*
X131490000Y-70260000D02*
X131490000Y-71980000D01*
X131490000Y-71980000D02*
X135210000Y-71980000D01*
X136280000Y-71120000D02*
X135210000Y-71120000D01*
X130420000Y-71120000D02*
X131490000Y-71120000D01*
X123780000Y-64360000D02*
X123780000Y-62640000D01*
X123780000Y-62640000D02*
X120060000Y-62640000D01*
X120060000Y-62640000D02*
X120060000Y-64360000D01*
X120060000Y-64360000D02*
X123780000Y-64360000D01*
X124850000Y-63500000D02*
X123780000Y-63500000D01*
X118990000Y-63500000D02*
X120060000Y-63500000D01*
X123780000Y-68170000D02*
X123780000Y-66450000D01*
X123780000Y-66450000D02*
X120060000Y-66450000D01*
X120060000Y-66450000D02*
X120060000Y-68170000D01*
X120060000Y-68170000D02*
X123780000Y-68170000D01*
X124850000Y-67310000D02*
X123780000Y-67310000D01*
X118990000Y-67310000D02*
X120060000Y-67310000D01*
X120060000Y-74070000D02*
X120060000Y-75790000D01*
X120060000Y-75790000D02*
X123780000Y-75790000D01*
X123780000Y-75790000D02*
X123780000Y-74070000D01*
X123780000Y-74070000D02*
X120060000Y-74070000D01*
X118990000Y-74930000D02*
X120060000Y-74930000D01*
X124850000Y-74930000D02*
X123780000Y-74930000D01*
X123780000Y-71980000D02*
X123780000Y-70260000D01*
X123780000Y-70260000D02*
X120060000Y-70260000D01*
X120060000Y-70260000D02*
X120060000Y-71980000D01*
X120060000Y-71980000D02*
X123780000Y-71980000D01*
X124850000Y-71120000D02*
X123780000Y-71120000D01*
X118990000Y-71120000D02*
X120060000Y-71120000D01*
D14*
X165590000Y-26830000D02*
X131590000Y-26830000D01*
X131590000Y-46830000D02*
X165590000Y-46830000D01*
X131590000Y-26830000D02*
X131590000Y-46830000D01*
X165590000Y-46830000D02*
X165590000Y-26830000D01*
D11*
X133290000Y-76260000D02*
X133290000Y-74930000D01*
X134620000Y-76260000D02*
X133290000Y-76260000D01*
X135890000Y-76260000D02*
X135890000Y-73600000D01*
X135890000Y-73600000D02*
X146110000Y-73600000D01*
X135890000Y-76260000D02*
X146110000Y-76260000D01*
X146110000Y-76260000D02*
X146110000Y-73600000D01*
D15*
X122478800Y-43469560D02*
X122478800Y-35270440D01*
X122080020Y-43469560D02*
X122080020Y-35270440D01*
X116779040Y-43469560D02*
X116779040Y-35270440D01*
X116281200Y-35270440D02*
X116281200Y-43469560D01*
X116779040Y-40670480D02*
X116281200Y-40670480D01*
X116281200Y-35471100D02*
X116779040Y-35471100D01*
X116779040Y-43271440D02*
X116281200Y-43271440D01*
X116281200Y-38072060D02*
X116779040Y-38072060D01*
X116281200Y-43469560D02*
X122478800Y-43469560D01*
X122478800Y-35272980D02*
X116281200Y-35272980D01*
D11*
X124670000Y-41430000D02*
X126790000Y-41430000D01*
X126790000Y-41430000D02*
X126790000Y-37310000D01*
X126790000Y-37310000D02*
X124670000Y-37310000D01*
X124670000Y-37310000D02*
X124670000Y-41430000D01*
X125730000Y-42200000D02*
X125730000Y-41430000D01*
X125730000Y-36540000D02*
X125730000Y-37310000D01*
X124670000Y-40770000D02*
X126790000Y-40770000D01*
X130600000Y-37310000D02*
X128480000Y-37310000D01*
X128480000Y-37310000D02*
X128480000Y-41430000D01*
X128480000Y-41430000D02*
X130600000Y-41430000D01*
X130600000Y-41430000D02*
X130600000Y-37310000D01*
X129540000Y-36540000D02*
X129540000Y-37310000D01*
X129540000Y-42200000D02*
X129540000Y-41430000D01*
X130600000Y-37970000D02*
X128480000Y-37970000D01*
X152390000Y-73680000D02*
X157490000Y-73680000D01*
X152390000Y-73640000D02*
X157490000Y-73640000D01*
X152391000Y-73600000D02*
X157489000Y-73600000D01*
X152392000Y-73560000D02*
X157488000Y-73560000D01*
X152394000Y-73520000D02*
X157486000Y-73520000D01*
X152397000Y-73480000D02*
X157483000Y-73480000D01*
X152401000Y-73440000D02*
X157479000Y-73440000D01*
X152405000Y-73400000D02*
X153960000Y-73400000D01*
X155920000Y-73400000D02*
X157475000Y-73400000D01*
X152409000Y-73360000D02*
X153960000Y-73360000D01*
X155920000Y-73360000D02*
X157471000Y-73360000D01*
X152415000Y-73320000D02*
X153960000Y-73320000D01*
X155920000Y-73320000D02*
X157465000Y-73320000D01*
X152421000Y-73280000D02*
X153960000Y-73280000D01*
X155920000Y-73280000D02*
X157459000Y-73280000D01*
X152427000Y-73240000D02*
X153960000Y-73240000D01*
X155920000Y-73240000D02*
X157453000Y-73240000D01*
X152434000Y-73200000D02*
X153960000Y-73200000D01*
X155920000Y-73200000D02*
X157446000Y-73200000D01*
X152442000Y-73160000D02*
X153960000Y-73160000D01*
X155920000Y-73160000D02*
X157438000Y-73160000D01*
X152451000Y-73120000D02*
X153960000Y-73120000D01*
X155920000Y-73120000D02*
X157429000Y-73120000D01*
X152460000Y-73080000D02*
X153960000Y-73080000D01*
X155920000Y-73080000D02*
X157420000Y-73080000D01*
X152470000Y-73040000D02*
X153960000Y-73040000D01*
X155920000Y-73040000D02*
X157410000Y-73040000D01*
X152480000Y-73000000D02*
X153960000Y-73000000D01*
X155920000Y-73000000D02*
X157400000Y-73000000D01*
X152492000Y-72959000D02*
X153960000Y-72959000D01*
X155920000Y-72959000D02*
X157388000Y-72959000D01*
X152504000Y-72919000D02*
X153960000Y-72919000D01*
X155920000Y-72919000D02*
X157376000Y-72919000D01*
X152516000Y-72879000D02*
X153960000Y-72879000D01*
X155920000Y-72879000D02*
X157364000Y-72879000D01*
X152530000Y-72839000D02*
X153960000Y-72839000D01*
X155920000Y-72839000D02*
X157350000Y-72839000D01*
X152544000Y-72799000D02*
X153960000Y-72799000D01*
X155920000Y-72799000D02*
X157336000Y-72799000D01*
X152558000Y-72759000D02*
X153960000Y-72759000D01*
X155920000Y-72759000D02*
X157322000Y-72759000D01*
X152574000Y-72719000D02*
X153960000Y-72719000D01*
X155920000Y-72719000D02*
X157306000Y-72719000D01*
X152590000Y-72679000D02*
X153960000Y-72679000D01*
X155920000Y-72679000D02*
X157290000Y-72679000D01*
X152607000Y-72639000D02*
X153960000Y-72639000D01*
X155920000Y-72639000D02*
X157273000Y-72639000D01*
X152625000Y-72599000D02*
X153960000Y-72599000D01*
X155920000Y-72599000D02*
X157255000Y-72599000D01*
X152644000Y-72559000D02*
X153960000Y-72559000D01*
X155920000Y-72559000D02*
X157236000Y-72559000D01*
X152664000Y-72519000D02*
X153960000Y-72519000D01*
X155920000Y-72519000D02*
X157216000Y-72519000D01*
X152684000Y-72479000D02*
X153960000Y-72479000D01*
X155920000Y-72479000D02*
X157196000Y-72479000D01*
X152706000Y-72439000D02*
X153960000Y-72439000D01*
X155920000Y-72439000D02*
X157174000Y-72439000D01*
X152728000Y-72399000D02*
X153960000Y-72399000D01*
X155920000Y-72399000D02*
X157152000Y-72399000D01*
X152751000Y-72359000D02*
X153960000Y-72359000D01*
X155920000Y-72359000D02*
X157129000Y-72359000D01*
X152775000Y-72319000D02*
X153960000Y-72319000D01*
X155920000Y-72319000D02*
X157105000Y-72319000D01*
X152800000Y-72279000D02*
X153960000Y-72279000D01*
X155920000Y-72279000D02*
X157080000Y-72279000D01*
X152827000Y-72239000D02*
X153960000Y-72239000D01*
X155920000Y-72239000D02*
X157053000Y-72239000D01*
X152854000Y-72199000D02*
X153960000Y-72199000D01*
X155920000Y-72199000D02*
X157026000Y-72199000D01*
X152882000Y-72159000D02*
X153960000Y-72159000D01*
X155920000Y-72159000D02*
X156998000Y-72159000D01*
X152912000Y-72119000D02*
X153960000Y-72119000D01*
X155920000Y-72119000D02*
X156968000Y-72119000D01*
X152943000Y-72079000D02*
X153960000Y-72079000D01*
X155920000Y-72079000D02*
X156937000Y-72079000D01*
X152975000Y-72039000D02*
X153960000Y-72039000D01*
X155920000Y-72039000D02*
X156905000Y-72039000D01*
X153008000Y-71999000D02*
X153960000Y-71999000D01*
X155920000Y-71999000D02*
X156872000Y-71999000D01*
X153043000Y-71959000D02*
X153960000Y-71959000D01*
X155920000Y-71959000D02*
X156837000Y-71959000D01*
X153079000Y-71919000D02*
X153960000Y-71919000D01*
X155920000Y-71919000D02*
X156801000Y-71919000D01*
X153117000Y-71879000D02*
X153960000Y-71879000D01*
X155920000Y-71879000D02*
X156763000Y-71879000D01*
X153157000Y-71839000D02*
X153960000Y-71839000D01*
X155920000Y-71839000D02*
X156723000Y-71839000D01*
X153198000Y-71799000D02*
X153960000Y-71799000D01*
X155920000Y-71799000D02*
X156682000Y-71799000D01*
X153241000Y-71759000D02*
X153960000Y-71759000D01*
X155920000Y-71759000D02*
X156639000Y-71759000D01*
X153286000Y-71719000D02*
X153960000Y-71719000D01*
X155920000Y-71719000D02*
X156594000Y-71719000D01*
X153334000Y-71679000D02*
X153960000Y-71679000D01*
X155920000Y-71679000D02*
X156546000Y-71679000D01*
X153384000Y-71639000D02*
X153960000Y-71639000D01*
X155920000Y-71639000D02*
X156496000Y-71639000D01*
X153436000Y-71599000D02*
X153960000Y-71599000D01*
X155920000Y-71599000D02*
X156444000Y-71599000D01*
X153492000Y-71559000D02*
X153960000Y-71559000D01*
X155920000Y-71559000D02*
X156388000Y-71559000D01*
X153550000Y-71519000D02*
X153960000Y-71519000D01*
X155920000Y-71519000D02*
X156330000Y-71519000D01*
X153613000Y-71479000D02*
X153960000Y-71479000D01*
X155920000Y-71479000D02*
X156267000Y-71479000D01*
X153679000Y-71439000D02*
X156201000Y-71439000D01*
X153751000Y-71399000D02*
X156129000Y-71399000D01*
X153828000Y-71359000D02*
X156052000Y-71359000D01*
X153912000Y-71319000D02*
X155968000Y-71319000D01*
X154006000Y-71279000D02*
X155874000Y-71279000D01*
X154111000Y-71239000D02*
X155769000Y-71239000D01*
X154233000Y-71199000D02*
X155647000Y-71199000D01*
X154381000Y-71159000D02*
X155499000Y-71159000D01*
X154586000Y-71119000D02*
X155294000Y-71119000D01*
X154940000Y-77130000D02*
X154940000Y-75930000D01*
X154290000Y-76530000D02*
X155590000Y-76530000D01*
X153760277Y-71374278D02*
G75*
G03*
X153760000Y-75985580I1179723J-2305722D01*
G01*
X156119723Y-71374278D02*
G75*
G02*
X156120000Y-75985580I-1179723J-2305722D01*
G01*
X156119723Y-71374278D02*
G75*
G03*
X153760000Y-71374420I-1179723J-2305722D01*
G01*
D15*
X133183333Y-67762380D02*
X132850000Y-67286190D01*
X132611904Y-67762380D02*
X132611904Y-66762380D01*
X132992857Y-66762380D01*
X133088095Y-66810000D01*
X133135714Y-66857619D01*
X133183333Y-66952857D01*
X133183333Y-67095714D01*
X133135714Y-67190952D01*
X133088095Y-67238571D01*
X132992857Y-67286190D01*
X132611904Y-67286190D01*
X133564285Y-66857619D02*
X133611904Y-66810000D01*
X133707142Y-66762380D01*
X133945238Y-66762380D01*
X134040476Y-66810000D01*
X134088095Y-66857619D01*
X134135714Y-66952857D01*
X134135714Y-67048095D01*
X134088095Y-67190952D01*
X133516666Y-67762380D01*
X134135714Y-67762380D01*
X132802380Y-55371904D02*
X133611904Y-55371904D01*
X133707142Y-55324285D01*
X133754761Y-55276666D01*
X133802380Y-55181428D01*
X133802380Y-54990952D01*
X133754761Y-54895714D01*
X133707142Y-54848095D01*
X133611904Y-54800476D01*
X132802380Y-54800476D01*
X132802380Y-54419523D02*
X132802380Y-53800476D01*
X133183333Y-54133809D01*
X133183333Y-53990952D01*
X133230952Y-53895714D01*
X133278571Y-53848095D01*
X133373809Y-53800476D01*
X133611904Y-53800476D01*
X133707142Y-53848095D01*
X133754761Y-53895714D01*
X133802380Y-53990952D01*
X133802380Y-54276666D01*
X133754761Y-54371904D01*
X133707142Y-54419523D01*
X121372380Y-55371904D02*
X122181904Y-55371904D01*
X122277142Y-55324285D01*
X122324761Y-55276666D01*
X122372380Y-55181428D01*
X122372380Y-54990952D01*
X122324761Y-54895714D01*
X122277142Y-54848095D01*
X122181904Y-54800476D01*
X121372380Y-54800476D01*
X121467619Y-54371904D02*
X121420000Y-54324285D01*
X121372380Y-54229047D01*
X121372380Y-53990952D01*
X121420000Y-53895714D01*
X121467619Y-53848095D01*
X121562857Y-53800476D01*
X121658095Y-53800476D01*
X121800952Y-53848095D01*
X122372380Y-54419523D01*
X122372380Y-53800476D01*
D14*
X140462714Y-50730571D02*
X141079571Y-50730571D01*
X141152142Y-50694285D01*
X141188428Y-50658000D01*
X141224714Y-50585428D01*
X141224714Y-50440285D01*
X141188428Y-50367714D01*
X141152142Y-50331428D01*
X141079571Y-50295142D01*
X140462714Y-50295142D01*
X141224714Y-49533142D02*
X141224714Y-49968571D01*
X141224714Y-49750857D02*
X140462714Y-49750857D01*
X140571571Y-49823428D01*
X140644142Y-49896000D01*
X140680428Y-49968571D01*
D15*
X133183333Y-63952380D02*
X132850000Y-63476190D01*
X132611904Y-63952380D02*
X132611904Y-62952380D01*
X132992857Y-62952380D01*
X133088095Y-63000000D01*
X133135714Y-63047619D01*
X133183333Y-63142857D01*
X133183333Y-63285714D01*
X133135714Y-63380952D01*
X133088095Y-63428571D01*
X132992857Y-63476190D01*
X132611904Y-63476190D01*
X133516666Y-62952380D02*
X134183333Y-62952380D01*
X133754761Y-63952380D01*
X133183333Y-71572380D02*
X132850000Y-71096190D01*
X132611904Y-71572380D02*
X132611904Y-70572380D01*
X132992857Y-70572380D01*
X133088095Y-70620000D01*
X133135714Y-70667619D01*
X133183333Y-70762857D01*
X133183333Y-70905714D01*
X133135714Y-71000952D01*
X133088095Y-71048571D01*
X132992857Y-71096190D01*
X132611904Y-71096190D01*
X134040476Y-70572380D02*
X133850000Y-70572380D01*
X133754761Y-70620000D01*
X133707142Y-70667619D01*
X133611904Y-70810476D01*
X133564285Y-71000952D01*
X133564285Y-71381904D01*
X133611904Y-71477142D01*
X133659523Y-71524761D01*
X133754761Y-71572380D01*
X133945238Y-71572380D01*
X134040476Y-71524761D01*
X134088095Y-71477142D01*
X134135714Y-71381904D01*
X134135714Y-71143809D01*
X134088095Y-71048571D01*
X134040476Y-71000952D01*
X133945238Y-70953333D01*
X133754761Y-70953333D01*
X133659523Y-71000952D01*
X133611904Y-71048571D01*
X133564285Y-71143809D01*
X121753333Y-63952380D02*
X121420000Y-63476190D01*
X121181904Y-63952380D02*
X121181904Y-62952380D01*
X121562857Y-62952380D01*
X121658095Y-63000000D01*
X121705714Y-63047619D01*
X121753333Y-63142857D01*
X121753333Y-63285714D01*
X121705714Y-63380952D01*
X121658095Y-63428571D01*
X121562857Y-63476190D01*
X121181904Y-63476190D01*
X122658095Y-62952380D02*
X122181904Y-62952380D01*
X122134285Y-63428571D01*
X122181904Y-63380952D01*
X122277142Y-63333333D01*
X122515238Y-63333333D01*
X122610476Y-63380952D01*
X122658095Y-63428571D01*
X122705714Y-63523809D01*
X122705714Y-63761904D01*
X122658095Y-63857142D01*
X122610476Y-63904761D01*
X122515238Y-63952380D01*
X122277142Y-63952380D01*
X122181904Y-63904761D01*
X122134285Y-63857142D01*
X121753333Y-67762380D02*
X121420000Y-67286190D01*
X121181904Y-67762380D02*
X121181904Y-66762380D01*
X121562857Y-66762380D01*
X121658095Y-66810000D01*
X121705714Y-66857619D01*
X121753333Y-66952857D01*
X121753333Y-67095714D01*
X121705714Y-67190952D01*
X121658095Y-67238571D01*
X121562857Y-67286190D01*
X121181904Y-67286190D01*
X122610476Y-67095714D02*
X122610476Y-67762380D01*
X122372380Y-66714761D02*
X122134285Y-67429047D01*
X122753333Y-67429047D01*
X121753333Y-75382380D02*
X121420000Y-74906190D01*
X121181904Y-75382380D02*
X121181904Y-74382380D01*
X121562857Y-74382380D01*
X121658095Y-74430000D01*
X121705714Y-74477619D01*
X121753333Y-74572857D01*
X121753333Y-74715714D01*
X121705714Y-74810952D01*
X121658095Y-74858571D01*
X121562857Y-74906190D01*
X121181904Y-74906190D01*
X122086666Y-74382380D02*
X122705714Y-74382380D01*
X122372380Y-74763333D01*
X122515238Y-74763333D01*
X122610476Y-74810952D01*
X122658095Y-74858571D01*
X122705714Y-74953809D01*
X122705714Y-75191904D01*
X122658095Y-75287142D01*
X122610476Y-75334761D01*
X122515238Y-75382380D01*
X122229523Y-75382380D01*
X122134285Y-75334761D01*
X122086666Y-75287142D01*
X121753333Y-71572380D02*
X121420000Y-71096190D01*
X121181904Y-71572380D02*
X121181904Y-70572380D01*
X121562857Y-70572380D01*
X121658095Y-70620000D01*
X121705714Y-70667619D01*
X121753333Y-70762857D01*
X121753333Y-70905714D01*
X121705714Y-71000952D01*
X121658095Y-71048571D01*
X121562857Y-71096190D01*
X121181904Y-71096190D01*
X122705714Y-71572380D02*
X122134285Y-71572380D01*
X122420000Y-71572380D02*
X122420000Y-70572380D01*
X122324761Y-70715238D01*
X122229523Y-70810476D01*
X122134285Y-70858095D01*
D14*
X147664714Y-37174714D02*
X147664714Y-36412714D01*
X147955000Y-36412714D01*
X148027571Y-36449000D01*
X148063857Y-36485285D01*
X148100142Y-36557857D01*
X148100142Y-36666714D01*
X148063857Y-36739285D01*
X148027571Y-36775571D01*
X147955000Y-36811857D01*
X147664714Y-36811857D01*
X148390428Y-37138428D02*
X148499285Y-37174714D01*
X148680714Y-37174714D01*
X148753285Y-37138428D01*
X148789571Y-37102142D01*
X148825857Y-37029571D01*
X148825857Y-36957000D01*
X148789571Y-36884428D01*
X148753285Y-36848142D01*
X148680714Y-36811857D01*
X148535571Y-36775571D01*
X148463000Y-36739285D01*
X148426714Y-36703000D01*
X148390428Y-36630428D01*
X148390428Y-36557857D01*
X148426714Y-36485285D01*
X148463000Y-36449000D01*
X148535571Y-36412714D01*
X148717000Y-36412714D01*
X148825857Y-36449000D01*
X149551571Y-37174714D02*
X149116142Y-37174714D01*
X149333857Y-37174714D02*
X149333857Y-36412714D01*
X149261285Y-36521571D01*
X149188714Y-36594142D01*
X149116142Y-36630428D01*
D16*
X132016190Y-75096666D02*
X132373333Y-75096666D01*
X132444761Y-75120476D01*
X132492380Y-75168095D01*
X132516190Y-75239523D01*
X132516190Y-75287142D01*
X132063809Y-74882380D02*
X132040000Y-74858571D01*
X132016190Y-74810952D01*
X132016190Y-74691904D01*
X132040000Y-74644285D01*
X132063809Y-74620476D01*
X132111428Y-74596666D01*
X132159047Y-74596666D01*
X132230476Y-74620476D01*
X132516190Y-74906190D01*
X132516190Y-74596666D01*
D15*
X123333260Y-39703333D02*
X124047546Y-39703333D01*
X124190403Y-39750952D01*
X124285641Y-39846190D01*
X124333260Y-39989047D01*
X124333260Y-40084285D01*
X124333260Y-38703333D02*
X124333260Y-39274761D01*
X124333260Y-38989047D02*
X123333260Y-38989047D01*
X123476118Y-39084285D01*
X123571356Y-39179523D01*
X123618975Y-39274761D01*
X126182380Y-40108095D02*
X125182380Y-40108095D01*
X125182380Y-39870000D01*
X125230000Y-39727142D01*
X125325238Y-39631904D01*
X125420476Y-39584285D01*
X125610952Y-39536666D01*
X125753809Y-39536666D01*
X125944285Y-39584285D01*
X126039523Y-39631904D01*
X126134761Y-39727142D01*
X126182380Y-39870000D01*
X126182380Y-40108095D01*
X125277619Y-39155714D02*
X125230000Y-39108095D01*
X125182380Y-39012857D01*
X125182380Y-38774761D01*
X125230000Y-38679523D01*
X125277619Y-38631904D01*
X125372857Y-38584285D01*
X125468095Y-38584285D01*
X125610952Y-38631904D01*
X126182380Y-39203333D01*
X126182380Y-38584285D01*
X129992380Y-40108095D02*
X128992380Y-40108095D01*
X128992380Y-39870000D01*
X129040000Y-39727142D01*
X129135238Y-39631904D01*
X129230476Y-39584285D01*
X129420952Y-39536666D01*
X129563809Y-39536666D01*
X129754285Y-39584285D01*
X129849523Y-39631904D01*
X129944761Y-39727142D01*
X129992380Y-39870000D01*
X129992380Y-40108095D01*
X129992380Y-38584285D02*
X129992380Y-39155714D01*
X129992380Y-38870000D02*
X128992380Y-38870000D01*
X129135238Y-38965238D01*
X129230476Y-39060476D01*
X129278095Y-39155714D01*
X151487142Y-73846666D02*
X151534761Y-73894285D01*
X151582380Y-74037142D01*
X151582380Y-74132380D01*
X151534761Y-74275238D01*
X151439523Y-74370476D01*
X151344285Y-74418095D01*
X151153809Y-74465714D01*
X151010952Y-74465714D01*
X150820476Y-74418095D01*
X150725238Y-74370476D01*
X150630000Y-74275238D01*
X150582380Y-74132380D01*
X150582380Y-74037142D01*
X150630000Y-73894285D01*
X150677619Y-73846666D01*
X151582380Y-72894285D02*
X151582380Y-73465714D01*
X151582380Y-73180000D02*
X150582380Y-73180000D01*
X150725238Y-73275238D01*
X150820476Y-73370476D01*
X150868095Y-73465714D01*
M02*
