G04 #@! TF.GenerationSoftware,KiCad,Pcbnew,(5.1.7-0-10_14)*
G04 #@! TF.CreationDate,2020-11-17T17:39:49+01:00*
G04 #@! TF.ProjectId,Pilot_Wire_v1,50696c6f-745f-4576-9972-655f76312e6b,1.0*
G04 #@! TF.SameCoordinates,Original*
G04 #@! TF.FileFunction,Copper,L1,Top*
G04 #@! TF.FilePolarity,Positive*
%FSLAX46Y46*%
G04 Gerber Fmt 4.6, Leading zero omitted, Abs format (unit mm)*
G04 Created by KiCad (PCBNEW (5.1.7-0-10_14)) date 2020-11-17 17:39:49*
%MOMM*%
%LPD*%
G01*
G04 APERTURE LIST*
G04 #@! TA.AperFunction,NonConductor*
%ADD10C,0.300000*%
G04 #@! TD*
G04 #@! TA.AperFunction,EtchedComponent*
%ADD11C,0.010000*%
G04 #@! TD*
G04 #@! TA.AperFunction,ComponentPad*
%ADD12C,1.400000*%
G04 #@! TD*
G04 #@! TA.AperFunction,ComponentPad*
%ADD13O,1.400000X1.400000*%
G04 #@! TD*
G04 #@! TA.AperFunction,ComponentPad*
%ADD14R,1.600000X2.400000*%
G04 #@! TD*
G04 #@! TA.AperFunction,ComponentPad*
%ADD15O,1.600000X2.400000*%
G04 #@! TD*
G04 #@! TA.AperFunction,SMDPad,CuDef*
%ADD16O,1.100000X2.400000*%
G04 #@! TD*
G04 #@! TA.AperFunction,SMDPad,CuDef*
%ADD17R,1.100000X2.400000*%
G04 #@! TD*
G04 #@! TA.AperFunction,SMDPad,CuDef*
%ADD18O,2.400000X1.100000*%
G04 #@! TD*
G04 #@! TA.AperFunction,ComponentPad*
%ADD19C,2.200000*%
G04 #@! TD*
G04 #@! TA.AperFunction,ComponentPad*
%ADD20O,2.000000X2.000000*%
G04 #@! TD*
G04 #@! TA.AperFunction,ComponentPad*
%ADD21R,2.000000X2.000000*%
G04 #@! TD*
G04 #@! TA.AperFunction,ComponentPad*
%ADD22O,1.998980X1.998980*%
G04 #@! TD*
G04 #@! TA.AperFunction,ComponentPad*
%ADD23R,1.998980X1.998980*%
G04 #@! TD*
G04 #@! TA.AperFunction,ComponentPad*
%ADD24R,1.600000X1.600000*%
G04 #@! TD*
G04 #@! TA.AperFunction,ComponentPad*
%ADD25O,1.600000X1.600000*%
G04 #@! TD*
G04 #@! TA.AperFunction,ComponentPad*
%ADD26C,1.600000*%
G04 #@! TD*
G04 #@! TA.AperFunction,Conductor*
%ADD27C,0.250000*%
G04 #@! TD*
G04 #@! TA.AperFunction,Conductor*
%ADD28C,0.500000*%
G04 #@! TD*
G04 APERTURE END LIST*
D10*
X149567142Y-34182857D02*
X149067142Y-34182857D01*
X149067142Y-34968571D02*
X149067142Y-33468571D01*
X149781428Y-33468571D01*
X150352857Y-34968571D02*
X150352857Y-33968571D01*
X150352857Y-33468571D02*
X150281428Y-33540000D01*
X150352857Y-33611428D01*
X150424285Y-33540000D01*
X150352857Y-33468571D01*
X150352857Y-33611428D01*
X151281428Y-34968571D02*
X151138571Y-34897142D01*
X151067142Y-34754285D01*
X151067142Y-33468571D01*
X152995714Y-34968571D02*
X152995714Y-33468571D01*
X153567142Y-33468571D01*
X153710000Y-33540000D01*
X153781428Y-33611428D01*
X153852857Y-33754285D01*
X153852857Y-33968571D01*
X153781428Y-34111428D01*
X153710000Y-34182857D01*
X153567142Y-34254285D01*
X152995714Y-34254285D01*
X154495714Y-34968571D02*
X154495714Y-33968571D01*
X154495714Y-33468571D02*
X154424285Y-33540000D01*
X154495714Y-33611428D01*
X154567142Y-33540000D01*
X154495714Y-33468571D01*
X154495714Y-33611428D01*
X155424285Y-34968571D02*
X155281428Y-34897142D01*
X155210000Y-34754285D01*
X155210000Y-33468571D01*
X156210000Y-34968571D02*
X156067142Y-34897142D01*
X155995714Y-34825714D01*
X155924285Y-34682857D01*
X155924285Y-34254285D01*
X155995714Y-34111428D01*
X156067142Y-34040000D01*
X156210000Y-33968571D01*
X156424285Y-33968571D01*
X156567142Y-34040000D01*
X156638571Y-34111428D01*
X156710000Y-34254285D01*
X156710000Y-34682857D01*
X156638571Y-34825714D01*
X156567142Y-34897142D01*
X156424285Y-34968571D01*
X156210000Y-34968571D01*
X157138571Y-33968571D02*
X157710000Y-33968571D01*
X157352857Y-33468571D02*
X157352857Y-34754285D01*
X157424285Y-34897142D01*
X157567142Y-34968571D01*
X157710000Y-34968571D01*
X159210000Y-33968571D02*
X159567142Y-34968571D01*
X159924285Y-33968571D01*
X161281428Y-34968571D02*
X160424285Y-34968571D01*
X160852857Y-34968571D02*
X160852857Y-33468571D01*
X160710000Y-33682857D01*
X160567142Y-33825714D01*
X160424285Y-33897142D01*
X161924285Y-34825714D02*
X161995714Y-34897142D01*
X161924285Y-34968571D01*
X161852857Y-34897142D01*
X161924285Y-34825714D01*
X161924285Y-34968571D01*
X162924285Y-33468571D02*
X163067142Y-33468571D01*
X163210000Y-33540000D01*
X163281428Y-33611428D01*
X163352857Y-33754285D01*
X163424285Y-34040000D01*
X163424285Y-34397142D01*
X163352857Y-34682857D01*
X163281428Y-34825714D01*
X163210000Y-34897142D01*
X163067142Y-34968571D01*
X162924285Y-34968571D01*
X162781428Y-34897142D01*
X162710000Y-34825714D01*
X162638571Y-34682857D01*
X162567142Y-34397142D01*
X162567142Y-34040000D01*
X162638571Y-33754285D01*
X162710000Y-33611428D01*
X162781428Y-33540000D01*
X162924285Y-33468571D01*
D11*
G36*
X146443700Y-35242500D02*
G01*
X146596100Y-35163760D01*
X146972020Y-35471100D01*
X147231100Y-35212020D01*
X146923760Y-34836100D01*
X147002500Y-34683700D01*
X147053300Y-34521140D01*
X147538440Y-34470340D01*
X147538440Y-34109660D01*
X147053300Y-34058860D01*
X147002500Y-33896300D01*
X146923760Y-33743900D01*
X147231100Y-33367980D01*
X146972020Y-33108900D01*
X146596100Y-33416240D01*
X146443700Y-33337500D01*
X146281140Y-33286700D01*
X146230340Y-32801560D01*
X145869660Y-32801560D01*
X145818860Y-33286700D01*
X145656300Y-33337500D01*
X145503900Y-33416240D01*
X145127980Y-33108900D01*
X144868900Y-33367980D01*
X145176240Y-33743900D01*
X145097500Y-33896300D01*
X145046700Y-34058860D01*
X144561560Y-34109660D01*
X144561560Y-34470340D01*
X145046700Y-34521140D01*
X145097500Y-34683700D01*
X145176240Y-34836100D01*
X144868900Y-35212020D01*
X145127980Y-35471100D01*
X145503900Y-35163760D01*
X145656300Y-35242500D01*
X145872200Y-34721800D01*
X145775680Y-34668460D01*
X145694400Y-34592260D01*
X145633440Y-34500820D01*
X145595340Y-34399220D01*
X145582640Y-34290000D01*
X145595340Y-34180780D01*
X145635980Y-34074100D01*
X145699480Y-33982660D01*
X145783300Y-33906460D01*
X145882360Y-33855660D01*
X145989040Y-33827720D01*
X146100800Y-33825180D01*
X146210020Y-33850580D01*
X146309080Y-33901380D01*
X146395440Y-33975040D01*
X146458940Y-34066480D01*
X146502120Y-34170620D01*
X146517360Y-34279840D01*
X146507200Y-34389060D01*
X146469100Y-34495740D01*
X146408140Y-34589720D01*
X146326860Y-34665920D01*
X146227800Y-34721800D01*
X146443700Y-35242500D01*
G37*
X146443700Y-35242500D02*
X146596100Y-35163760D01*
X146972020Y-35471100D01*
X147231100Y-35212020D01*
X146923760Y-34836100D01*
X147002500Y-34683700D01*
X147053300Y-34521140D01*
X147538440Y-34470340D01*
X147538440Y-34109660D01*
X147053300Y-34058860D01*
X147002500Y-33896300D01*
X146923760Y-33743900D01*
X147231100Y-33367980D01*
X146972020Y-33108900D01*
X146596100Y-33416240D01*
X146443700Y-33337500D01*
X146281140Y-33286700D01*
X146230340Y-32801560D01*
X145869660Y-32801560D01*
X145818860Y-33286700D01*
X145656300Y-33337500D01*
X145503900Y-33416240D01*
X145127980Y-33108900D01*
X144868900Y-33367980D01*
X145176240Y-33743900D01*
X145097500Y-33896300D01*
X145046700Y-34058860D01*
X144561560Y-34109660D01*
X144561560Y-34470340D01*
X145046700Y-34521140D01*
X145097500Y-34683700D01*
X145176240Y-34836100D01*
X144868900Y-35212020D01*
X145127980Y-35471100D01*
X145503900Y-35163760D01*
X145656300Y-35242500D01*
X145872200Y-34721800D01*
X145775680Y-34668460D01*
X145694400Y-34592260D01*
X145633440Y-34500820D01*
X145595340Y-34399220D01*
X145582640Y-34290000D01*
X145595340Y-34180780D01*
X145635980Y-34074100D01*
X145699480Y-33982660D01*
X145783300Y-33906460D01*
X145882360Y-33855660D01*
X145989040Y-33827720D01*
X146100800Y-33825180D01*
X146210020Y-33850580D01*
X146309080Y-33901380D01*
X146395440Y-33975040D01*
X146458940Y-34066480D01*
X146502120Y-34170620D01*
X146517360Y-34279840D01*
X146507200Y-34389060D01*
X146469100Y-34495740D01*
X146408140Y-34589720D01*
X146326860Y-34665920D01*
X146227800Y-34721800D01*
X146443700Y-35242500D01*
D12*
X137160000Y-67310000D03*
D13*
X129540000Y-67310000D03*
D14*
X130810000Y-58420000D03*
D15*
X135890000Y-50800000D03*
X133350000Y-58420000D03*
X133350000Y-50800000D03*
X135890000Y-58420000D03*
X130810000Y-50800000D03*
D14*
X119380000Y-58420000D03*
D15*
X124460000Y-50800000D03*
X121920000Y-58420000D03*
X121920000Y-50800000D03*
X124460000Y-58420000D03*
X119380000Y-50800000D03*
D16*
X157480000Y-65150000D03*
X155480000Y-65150000D03*
X153480000Y-65150000D03*
X151480000Y-65150000D03*
X149480000Y-65150000D03*
X147480000Y-65150000D03*
X145480000Y-65150000D03*
X143480000Y-65150000D03*
X143480000Y-49150000D03*
X145480000Y-49150000D03*
X147480000Y-49150000D03*
X149480000Y-49150000D03*
X151480000Y-49150000D03*
X153480000Y-49150000D03*
X155480000Y-49150000D03*
D17*
X157480000Y-49150000D03*
D18*
X141730000Y-62140000D03*
X141730000Y-60140000D03*
X141730000Y-58140000D03*
X141730000Y-56140000D03*
X141730000Y-54140000D03*
X141730000Y-52140000D03*
D12*
X137160000Y-63500000D03*
D13*
X129540000Y-63500000D03*
D12*
X137160000Y-71120000D03*
D13*
X129540000Y-71120000D03*
D12*
X125730000Y-63500000D03*
D13*
X118110000Y-63500000D03*
D12*
X125730000Y-67310000D03*
D13*
X118110000Y-67310000D03*
D12*
X118110000Y-74930000D03*
D13*
X125730000Y-74930000D03*
D12*
X125730000Y-71120000D03*
D13*
X118110000Y-71120000D03*
D19*
X163290000Y-44530000D03*
X163290000Y-29130000D03*
X133890000Y-39330000D03*
X133890000Y-34330000D03*
D20*
X144780000Y-74930000D03*
X142240000Y-74930000D03*
X139700000Y-74930000D03*
X137160000Y-74930000D03*
D21*
X134620000Y-74930000D03*
D22*
X119380000Y-41910000D03*
D23*
X119380000Y-36830000D03*
D22*
X119380000Y-39370000D03*
D24*
X125730000Y-43180000D03*
D25*
X125730000Y-35560000D03*
D24*
X129540000Y-35560000D03*
D25*
X129540000Y-43180000D03*
D24*
X154940000Y-74930000D03*
D26*
X154940000Y-72430000D03*
D27*
X152954990Y-64387539D02*
X152954990Y-66162441D01*
X153830000Y-64626139D02*
X153830000Y-65150000D01*
D28*
X143480000Y-49150000D02*
X143480000Y-44480000D01*
X143480000Y-44480000D02*
X147320000Y-40640000D01*
X159400000Y-40640000D02*
X163290000Y-44530000D01*
X147320000Y-40640000D02*
X159400000Y-40640000D01*
X143480000Y-65150000D02*
X143480000Y-64661509D01*
X143480000Y-64500000D02*
X156402760Y-51577240D01*
X143480000Y-65150000D02*
X143480000Y-64500000D01*
X156402760Y-51577240D02*
X158348680Y-51577240D01*
X158348680Y-51577240D02*
X159412940Y-50512980D01*
X159412940Y-50512980D02*
X159412940Y-48379380D01*
X159412940Y-48379380D02*
X160543240Y-47249080D01*
X160543240Y-47249080D02*
X164307520Y-47249080D01*
X164389999Y-30229999D02*
X163290000Y-29130000D01*
X165140001Y-30980001D02*
X164389999Y-30229999D01*
X165140001Y-46416599D02*
X165140001Y-30980001D01*
X164307520Y-47249080D02*
X165140001Y-46416599D01*
D27*
X152400000Y-68580000D02*
X155480000Y-65500000D01*
X148590000Y-68580000D02*
X152400000Y-68580000D01*
X155480000Y-65500000D02*
X155480000Y-65150000D01*
X142240000Y-74930000D02*
X148590000Y-68580000D01*
X146074999Y-76555001D02*
X157480000Y-65150000D01*
X141325001Y-76555001D02*
X146074999Y-76555001D01*
X139700000Y-74930000D02*
X141325001Y-76555001D01*
X141025001Y-73604999D02*
X149480000Y-65150000D01*
X138485001Y-73604999D02*
X141025001Y-73604999D01*
X137160000Y-74930000D02*
X138485001Y-73604999D01*
X125974999Y-71612001D02*
X125974999Y-70627999D01*
X140967539Y-61015010D02*
X142742441Y-61015010D01*
X152604990Y-51152461D02*
X152604990Y-48137559D01*
X140204990Y-61777559D02*
X140967539Y-61015010D01*
X142742441Y-61015010D02*
X152604990Y-51152461D01*
X140204990Y-62748008D02*
X140204990Y-61777559D01*
X155954990Y-47624990D02*
X157480000Y-49150000D01*
X153117559Y-47624990D02*
X155954990Y-47624990D01*
X152604990Y-48137559D02*
X153117559Y-47624990D01*
X133157999Y-69794999D02*
X140204990Y-62748008D01*
X127055001Y-69794999D02*
X133157999Y-69794999D01*
X125730000Y-71120000D02*
X127055001Y-69794999D01*
X153480000Y-50600000D02*
X153480000Y-49150000D01*
X137160000Y-67310000D02*
X140204990Y-64265010D01*
X153480000Y-52277451D02*
X153480000Y-49150000D01*
X141492441Y-64265010D02*
X153480000Y-52277451D01*
X140204990Y-64265010D02*
X141492441Y-64265010D01*
X145480000Y-65461715D02*
X145480000Y-65150000D01*
X139011992Y-66975010D02*
X143966705Y-66975010D01*
X143966705Y-66975010D02*
X145480000Y-65461715D01*
X131057002Y-74930000D02*
X139011992Y-66975010D01*
X125730000Y-74930000D02*
X131057002Y-74930000D01*
X149480000Y-52277451D02*
X149480000Y-49150000D01*
X142742441Y-59015010D02*
X149480000Y-52277451D01*
X140127988Y-59015010D02*
X142742441Y-59015010D01*
X133157999Y-65984999D02*
X140127988Y-59015010D01*
X127055001Y-65984999D02*
X133157999Y-65984999D01*
X125730000Y-67310000D02*
X127055001Y-65984999D01*
X145480000Y-49461715D02*
X145480000Y-49150000D01*
X143966705Y-50975010D02*
X145480000Y-49461715D01*
X141007539Y-50975010D02*
X143966705Y-50975010D01*
X140204990Y-56096014D02*
X140204990Y-51777559D01*
X140204990Y-51777559D02*
X141007539Y-50975010D01*
X134126005Y-62174999D02*
X140204990Y-56096014D01*
X127055001Y-62174999D02*
X134126005Y-62174999D01*
X125730000Y-63500000D02*
X127055001Y-62174999D01*
X141510000Y-71120000D02*
X147480000Y-65150000D01*
X137160000Y-71120000D02*
X141510000Y-71120000D01*
M02*
