M48
; DRILL file {KiCad (5.1.7-0-10_14)} date Tuesday, November 17, 2020 at 05:39:47 PM
; FORMAT={-:-/ absolute / inch / decimal}
; #@! TF.CreationDate,2020-11-17T17:39:47+01:00
; #@! TF.GenerationSoftware,Kicad,Pcbnew,(5.1.7-0-10_14)
; #@! TF.FileFunction,Plated,1,2,PTH
FMAT,2
INCH
T1C0.0276
T2C0.0315
T3C0.0394
T4C0.0432
T5C0.0492
%
G90
G05
T1
X4.65Y-2.65
X4.95Y-2.65
X4.65Y-2.95
X4.95Y-2.95
X5.1Y-2.8
X5.4Y-2.8
X5.1Y-2.65
X5.4Y-2.65
X4.65Y-2.8
X4.95Y-2.8
X4.65Y-2.5
X4.95Y-2.5
X5.1Y-2.5
X5.4Y-2.5
T2
X4.7Y-2.0
X4.7Y-2.3
X4.8Y-2.0
X4.8Y-2.3
X4.9Y-2.0
X4.9Y-2.3
X6.1Y-2.8516
X6.1Y-2.95
X5.1Y-1.4
X5.1Y-1.7
X4.95Y-1.4
X4.95Y-1.7
X5.15Y-2.0
X5.15Y-2.3
X5.25Y-2.0
X5.25Y-2.3
X5.35Y-2.0
X5.35Y-2.3
T3
X5.3Y-2.95
X5.4Y-2.95
X5.5Y-2.95
X5.6Y-2.95
X5.7Y-2.95
T4
X4.7Y-1.45
X4.7Y-1.55
X4.7Y-1.65
T5
X5.2713Y-1.3516
X5.2713Y-1.5484
X6.4287Y-1.1469
X6.4287Y-1.7531
T0
M30
